<svg xmlns="http://www.w3.org/2000/svg" width="43.631" height="31.996" viewBox="0 0 43.631 31.996">
  <g id="cloud-storage-uploading-option" transform="translate(0 -73.091)">
    <path id="Path_3" data-name="Path 3" d="M41.733,90.941a8.6,8.6,0,0,0-4.852-3.079A5.808,5.808,0,0,0,32,78.908a5.554,5.554,0,0,0-3.772,1.409,11.648,11.648,0,0,0-10.771-7.226A11.21,11.21,0,0,0,9.226,76.5a11.208,11.208,0,0,0-3.409,8.226q0,.3.045.977A10.162,10.162,0,0,0,0,94.907,9.8,9.8,0,0,0,2.988,102.1a9.8,9.8,0,0,0,7.192,2.989H34.905a8.716,8.716,0,0,0,6.828-14.146Zm-12.862-.613a.7.7,0,0,1-.511.215H23.27v8a.737.737,0,0,1-.727.727H18.179a.737.737,0,0,1-.727-.727v-8h-5.09a.7.7,0,0,1-.727-.727.854.854,0,0,1,.227-.546l7.976-7.976a.77.77,0,0,1,1.045,0l8,8a.707.707,0,0,1,.2.523A.7.7,0,0,1,28.871,90.328Z" transform="translate(0)" fill="#c7d2e4"/>
  </g>
</svg>
