<svg xmlns="http://www.w3.org/2000/svg" width="19.725" height="16.102" viewBox="0 0 19.725 16.102">
  <g id="college-graduation" transform="translate(0 -36.648)">
    <g id="Layer_5_59_" transform="translate(0 36.648)">
      <g id="Group_1" data-name="Group 1" transform="translate(0 0)">
        <path id="Path_1" data-name="Path 1" d="M56.263,205.916a2.567,2.567,0,0,1-2.532,0L48,202.4s-.517-.317-.517.4v3.51c0,1.849,3.365,3.843,7.515,3.843s7.515-1.993,7.515-3.843V202.6c0-.577-.368-.295-.368-.295Z" transform="translate(-45.134 -194.054)" fill="#4e4e4e"/>
        <path id="Path_2" data-name="Path 2" d="M19.4,42.2a.53.53,0,0,0,0-.982L10.663,36.85a1.684,1.684,0,0,0-1.6,0L.33,41.217a.53.53,0,0,0,0,.982l8.732,5.355a1.684,1.684,0,0,0,1.6,0" transform="translate(0 -36.648)" fill="#4e4e4e"/>
        <path id="Path_3" data-name="Path 3" d="M357.261,191.8v-5.914s0-.28-.162-.188a4.834,4.834,0,0,0-.575.357.5.5,0,0,0-.1.375v5.37a.158.158,0,0,1-.1.131,1.022,1.022,0,1,0,1.031,0A.152.152,0,0,1,357.261,191.8Z" transform="translate(-338.227 -178.308)" fill="#4e4e4e"/>
      </g>
    </g>
  </g>
</svg>
